<?xml version="1.0" encoding="utf-8"?>
<!-- Generator: Adobe Illustrator 24.0.1, SVG Export Plug-In . SVG Version: 6.00 Build 0)  -->
<svg version="1.1" id="BACKGROUND" xmlns="http://www.w3.org/2000/svg" xmlns:xlink="http://www.w3.org/1999/xlink" x="0px" y="0px"
	 viewBox="0 0 750 500" style="enable-background:new 0 0 750 500;" xml:space="preserve">
<style type="text/css">
	.st0{fill:#140635;}
	.st1{display:none;clip-path:url(#SVGID_2_);fill:url(#SVGID_3_);}
	.st2{display:none;clip-path:url(#SVGID_2_);fill:url(#SVGID_4_);}
	.st3{display:none;clip-path:url(#SVGID_2_);fill:url(#SVGID_5_);}
	.st4{display:none;clip-path:url(#SVGID_2_);fill:url(#SVGID_6_);}
	.st5{clip-path:url(#SVGID_2_);fill:url(#SVGID_7_);}
	.st6{clip-path:url(#SVGID_2_);fill:url(#SVGID_8_);}
	.st7{clip-path:url(#SVGID_2_);fill:url(#SVGID_9_);}
	.st8{clip-path:url(#SVGID_2_);fill:url(#SVGID_10_);}
	.st9{clip-path:url(#SVGID_2_);fill:url(#SVGID_11_);}
	.st10{clip-path:url(#SVGID_2_);fill:url(#SVGID_12_);}
	.st11{clip-path:url(#SVGID_2_);fill:url(#SVGID_13_);}
	.st12{clip-path:url(#SVGID_2_);fill:url(#SVGID_14_);}
	.st13{clip-path:url(#SVGID_2_);}
	.st14{opacity:0.3;clip-path:url(#SVGID_16_);}
	.st15{fill:#FFFFFF;}
	.st16{display:none;opacity:0.1;clip-path:url(#SVGID_2_);fill:#FFFFFF;}
</style>
<rect class="st0" width="750" height="500"/>
<g>
	<defs>
		<rect id="SVGID_1_" width="750" height="500"/>
	</defs>
	<clipPath id="SVGID_2_">
		<use xlink:href="#SVGID_1_"  style="overflow:visible;"/>
	</clipPath>
	<linearGradient id="SVGID_3_" gradientUnits="userSpaceOnUse" x1="346.3172" y1="258.406" x2="383.4109" y2="345.4956">
		<stop  offset="0" style="stop-color:#270C66"/>
		<stop  offset="1" style="stop-color:#140635"/>
	</linearGradient>
	<path class="st1" d="M-18.68,444.04c89.09,15.9,136.08-18.96,151.3-36.1c15.23-17.14,66.13-96.33,137.22-104.97
		c61.12-7.43,104.61,8.97,180.52-15.53c75.91-24.5,71.48-91.58,138-141.39s173.48-32.13,173.48-32.13l-211.6,249.62L112.85,502.58
		c0,0-129.97,28.57-129.45,23.75C-16.08,521.51-18.68,444.04-18.68,444.04z"/>
	<linearGradient id="SVGID_4_" gradientUnits="userSpaceOnUse" x1="28.437" y1="479.4269" x2="40.9587" y2="504.9921">
		<stop  offset="0" style="stop-color:#270C66"/>
		<stop  offset="1" style="stop-color:#140635"/>
	</linearGradient>
	<path class="st2" d="M-28.94,471.78c52.96,41.78,103.57-20.09,118.43-9.39c14.87,10.7-35.22,66.52-35.22,66.52
		s-41.22,21.91-54.26,7.83c-13.04-14.09-33.39-34.7-33.91-42.52C-34.42,486.39-28.94,471.78-28.94,471.78z"/>
	<linearGradient id="SVGID_5_" gradientUnits="userSpaceOnUse" x1="620.6736" y1="205.9801" x2="629.3297" y2="226.303">
		<stop  offset="0" style="stop-color:#270C66"/>
		<stop  offset="1" style="stop-color:#140635"/>
	</linearGradient>
	<path class="st3" d="M711.66,202.83c-77.87-24.26-136.57,9.78-153,74.35C568.05,273.65,711.66,202.83,711.66,202.83z"/>
	<linearGradient id="SVGID_6_" gradientUnits="userSpaceOnUse" x1="288.3389" y1="327.0112" x2="296.9949" y2="347.3341">
		<stop  offset="0" style="stop-color:#270C66"/>
		<stop  offset="1" style="stop-color:#140635"/>
	</linearGradient>
	<path class="st4" d="M379.33,323.86c-77.87-24.26-136.57,9.78-153,74.35C235.72,394.68,379.33,323.86,379.33,323.86z"/>
	<linearGradient id="SVGID_7_" gradientUnits="userSpaceOnUse" x1="289.3376" y1="421.9127" x2="715.4677" y2="311.5651">
		<stop  offset="0" style="stop-color:#FC7A4B"/>
		<stop  offset="0.4899" style="stop-color:#CF0054"/>
		<stop  offset="1" style="stop-color:#790054"/>
	</linearGradient>
	<path class="st5" d="M754.69,94.83v415.08H6.57c75.01-17.35,78.92-77.74,124.41-108.65c40.79-27.72,93.76-2.25,157.15-47.1h0.01
		c7.32-5.17,14.78-11.29,22.37-18.53c93.84-89.47,213.29-40.13,278.84-77.01c8.71-4.9,16.69-11.37,24.16-18.9
		c0.2-0.21,0.4-0.41,0.59-0.61C662.52,189.74,689.63,95.76,754.69,94.83z"/>
	<linearGradient id="SVGID_8_" gradientUnits="userSpaceOnUse" x1="97.9073" y1="561.9749" x2="716.5591" y2="202.7575">
		<stop  offset="0" style="stop-color:#FC7A4B"/>
		<stop  offset="0.4899" style="stop-color:#CF0054"/>
		<stop  offset="1" style="stop-color:#790054"/>
	</linearGradient>
	<path class="st6" d="M754.69,94.83v222.41c-40.58,35.29-101.64,63.59-172.16,64.02c-106.5,0.65-225.93,56.79-242.49,128.65H6.57
		c75.01-17.35,78.92-77.74,124.41-108.65c40.79-27.72,93.76-2.25,157.15-47.1h0.01c7.32-5.17,14.78-11.29,22.37-18.53
		c93.84-89.47,213.29-40.13,278.84-77.01c8.71-4.9,16.69-11.37,24.16-18.9c0.2-0.21,0.4-0.41,0.59-0.61
		C662.52,189.74,689.63,95.76,754.69,94.83z"/>
	<linearGradient id="SVGID_9_" gradientUnits="userSpaceOnUse" x1="141.184" y1="472.9022" x2="624.0534" y2="214.6417">
		<stop  offset="0" style="stop-color:#FC7A4B"/>
		<stop  offset="0.4899" style="stop-color:#CF0054"/>
		<stop  offset="1" style="stop-color:#790054"/>
	</linearGradient>
	<path class="st7" d="M613.51,239.72c-68.5,71.65-153.67,166.91-274.37,187.71c-75.6,13.03-115.07,53.75-134.06,82.48H6.57
		c75.01-17.35,78.92-77.74,124.41-108.65c40.79-27.72,93.76-2.25,157.15-47.1h0.01c7.32-5.17,14.78-11.29,22.37-18.53
		c50-47.67,107.27-55.93,159.78-58.83c0.01,0,0.02,0,0.03-0.01c20.85-1.14,40.95-1.45,59.54-3.03c22.46-1.92,42.74-5.71,59.49-15.14
		C598.06,253.72,606.04,247.25,613.51,239.72z"/>
	<linearGradient id="SVGID_10_" gradientUnits="userSpaceOnUse" x1="35.4774" y1="509.8413" x2="307.8253" y2="361.1458">
		<stop  offset="0" style="stop-color:#FC7A4B"/>
		<stop  offset="0.4899" style="stop-color:#CF0054"/>
		<stop  offset="1" style="stop-color:#790054"/>
	</linearGradient>
	<path class="st8" d="M288.13,354.16c-42.61,35.52-64,125.3-153.96,155.75H6.57c75.01-17.35,78.92-77.74,124.41-108.65
		c20.75-14.1,44.66-14.44,71.48-17.28c14.31-1.5,29.44-3.72,45.37-9.12c0.05-0.02,0.09-0.03,0.14-0.05
		C260.85,370.44,274.24,363.99,288.13,354.16z"/>
	<linearGradient id="SVGID_11_" gradientUnits="userSpaceOnUse" x1="21.4032" y1="444.0383" x2="247.8333" y2="444.0383">
		<stop  offset="0" style="stop-color:#FFFFC2"/>
		<stop  offset="1" style="stop-color:#142C6F"/>
	</linearGradient>
	<path class="st9" d="M247.83,374.86c-67.16,23.83-50.3,105.36-159.52,135.05c-3.15,0.86-6.41,1.67-9.78,2.44
		c-16.43,1.95-57.13,0-57.13,0c3.78-0.58,7.46-1.4,11.03-2.44c60.67-17.62,93.61-98.16,170.03-125.93
		C216.77,382.48,231.9,380.26,247.83,374.86z"/>
	<linearGradient id="SVGID_12_" gradientUnits="userSpaceOnUse" x1="142.7031" y1="398.205" x2="529.8633" y2="398.205">
		<stop  offset="0" style="stop-color:#FFFFC2"/>
		<stop  offset="1" style="stop-color:#142C6F"/>
	</linearGradient>
	<path class="st10" d="M529.86,273.76c-98.34,10.97-82.54,84.57-180.03,118.46c-84,29.2-139.78,86.64-157.64,117.69
		c-2.89,5.01-4.79,9.33-5.66,12.74l-43.83-2.61c4.98-1.59,11.01-5.13,17.87-10.13c44.84-32.7,115.18-129.58,173.61-171.69
		c43.43-31.3,80.75-52.14,136.11-61.42c0.01,0,0.02,0,0.03-0.01C491.17,275.65,511.27,275.34,529.86,273.76z"/>
	<linearGradient id="SVGID_13_" gradientUnits="userSpaceOnUse" x1="293.9877" y1="532.843" x2="842.2036" y2="67.9746">
		<stop  offset="0" style="stop-color:#FFFFC2"/>
		<stop  offset="1" style="stop-color:#142C6F"/>
	</linearGradient>
	<path class="st11" d="M249.53,522.65c0.78-37.96,49.61-67.3,74.66-74.08c25.04-6.78,45.47-15.91,80.17-29.48
		c34.7-13.57,215.74-93.65,256.43-181.83c40.7-88.17,17.39-59.72,59.04-131.86c2.66-1.58,49.48-40.84,49.48-40.84v86.61
		c-53.74,8.25-46.43,96.52-130.43,161.61c-56.65,43.89-173.22,78.13-235.57,112.04c-62.35,33.91-116.35,54.26-104.35,92.61
		L249.53,522.65z"/>
	<linearGradient id="SVGID_14_" gradientUnits="userSpaceOnUse" x1="389.7407" y1="552.6301" x2="853.0441" y2="305.326">
		<stop  offset="0" style="stop-color:#FFFFC2"/>
		<stop  offset="1" style="stop-color:#142C6F"/>
	</linearGradient>
	<path class="st12" d="M402.53,522.65c21.13-167.22,313.04-52.95,363.65-165.39C750,552.26,503.49,417.26,402.53,522.65z"/>
	<g class="st13">
		<defs>
			<path id="SVGID_15_" d="M754.69,94.83v415.08H6.57c75.01-17.35,78.92-77.74,124.41-108.65c40.79-27.72,93.76-2.25,157.15-47.1
				h0.01c7.32-5.17,14.78-11.29,22.37-18.53c93.84-89.47,213.29-40.13,278.84-77.01c8.71-4.9,16.69-11.37,24.16-18.9
				c0.2-0.21,0.4-0.41,0.59-0.61C662.52,189.74,689.63,95.76,754.69,94.83z"/>
		</defs>
		<clipPath id="SVGID_16_">
			<use xlink:href="#SVGID_15_"  style="overflow:visible;"/>
		</clipPath>
		<g class="st14">
			<path class="st15" d="M358.49,517.49c-0.73-12.38,6.9-27.84,21.49-43.54c36.14-38.9,113.91-78.76,206.19-80.13
				c75.18-1.11,150.16-31.42,182.35-73.69l1.59,1.21c-16.73,21.97-43.94,40.71-78.69,54.2c-32.36,12.55-69.73,19.76-105.22,20.29
				c-91.69,1.36-168.9,40.9-204.75,79.49c-14.21,15.3-21.66,30.23-20.96,42.06L358.49,517.49z"/>
		</g>
		<g class="st14">
			<path class="st15" d="M311.81,522.81c-6.73-41.32,63.12-84.24,122.9-112.97c14.27-6.86,37.9-15.89,65.26-26.35
				c56.33-21.53,126.42-48.32,154.98-71.61c20.44-16.68,41.08-48.53,59.29-76.62c19.85-30.63,37-57.09,49.45-57.3l0.03,2
				c-11.39,0.19-29.08,27.49-47.81,56.39c-18.29,28.22-39.02,60.2-59.71,77.08c-28.8,23.5-99.07,50.36-155.52,71.93
				c-27.32,10.44-50.92,19.46-65.11,26.28c-59.17,28.43-128.32,70.75-121.79,110.85L311.81,522.81z"/>
		</g>
		<g class="st14">
			<path class="st15" d="M231.71,522.71c-1.55-25.71,15.6-48.74,50.97-68.45c36.49-20.33,79.74-29.72,92.13-32.11
				c23.96-4.63,83.94-28.12,142.9-71.46c49.06-36.06,111.37-96.46,129.58-179.38l1.95,0.43c-18.34,83.53-81.01,144.3-130.35,180.57
				c-59.23,43.54-119.58,67.15-143.71,71.81c-54.12,10.45-144.83,42.95-141.48,98.48L231.71,522.71z"/>
		</g>
		<g class="st14">
			<path class="st15" d="M173.27,530.41l-1.86-0.75c14.79-36.71,40.6-69.69,72.68-92.87c21.17-15.29,45.21-26.65,68.47-37.64
				c23.71-11.2,48.22-22.79,69.59-38.51c13.65-10.04,26.19-21.91,38.32-33.39c6.55-6.2,13.33-12.62,20.22-18.68
				c15.46-13.61,39.3-32.47,67.73-38.99l0.45,1.95c-27.99,6.42-51.56,25.07-66.86,38.54c-6.86,6.04-13.63,12.44-20.17,18.63
				c-12.18,11.52-24.77,23.43-38.51,33.55c-21.52,15.83-46.13,27.46-69.92,38.7c-23.17,10.95-47.14,22.27-68.15,37.45
				C213.48,461.38,187.91,494.05,173.27,530.41z"/>
		</g>
		<g class="st14">
			<path class="st15" d="M55.27,523.74c-2.01,0-4.05-0.03-6.11-0.09l0.06-2c91,2.69,128.93-54.91,159.4-101.17
				c17.55-26.65,32.72-49.66,54.31-56.61l0.61,1.9c-20.92,6.73-35.91,29.47-53.25,55.8C180.23,467.21,142.99,523.74,55.27,523.74z"
				/>
		</g>
	</g>
	<path class="st16" d="M323.49,500c12.69-69.69,100.85-123.22,233.16-148.76c132.31-25.54,36.84-221.98,119.79-260.33
		c23.85-11.03,45.57-12.22,64.4-8.32c55.09,11.4,88.96,66.99,75.75,121.67c-13.4,55.48-63.61,129.69-226.24,169.95
		C308.9,443.9,468.27,514.91,542.62,509.91L323.49,500z"/>
	<path class="st16" d="M209.49,519.52c20.04-77.87,207.18-121.83,275.62-158.61c68.44-36.78,53.8-96.85-29.36-72.52
		c-83.17,24.33-213.91,227.48-321.91,234.26s116.35-61.04,146.61-140.35c30.26-79.3-84.26-66.21-118.43,20.63
		s-32.87,96.76-68.87,114.5c-36,17.74,10.7-20.09-14.09-44.61c-24.78-24.52-121.83-8.72-83.22,50.29
		C34.45,582.13,209.49,519.52,209.49,519.52z"/>
</g>
</svg>
